<?xml version="1.0" encoding="utf-8"?>
<!-- Generator: Adobe Illustrator 21.0.0, SVG Export Plug-In . SVG Version: 6.00 Build 0)  -->
<svg version="1.1" id="Layer_1" xmlns="http://www.w3.org/2000/svg" xmlns:xlink="http://www.w3.org/1999/xlink" x="0px" y="0px"
	 viewBox="0 0 512 512" style="enable-background:new 0 0 512 512;" xml:space="preserve">
<style type="text/css">
	.st0{fill:#FFFFFF;}
</style>
<path class="st0" d="M444,512c-18.6-18.6-37.2-37.1-55.9-55.7c-18.6-18.6-37.1-37.4-56-55.8c-4.9-4.8-6-9.5-3.6-15.6
	c1.7-4.7,4-9.1,6.9-13.2c1.4-2,1-2.9-0.5-4.4c-12-11.8-24-23.6-35.8-35.6c-2.4-2.4-3.6-1-5.3,0.3c-21.5,16-45.4,27.3-71.8,32.3
	c-66,12.5-123.3-4.8-170.7-52.5c-26.8-27-42.5-60.1-49.3-97.4c-0.7-4.1-0.2-8.4-2.1-12.3v-36c2.2-5.7,2-11.8,3.2-17.7
	C17.1,76.7,73.7,19.3,145.4,3.9c6.8-1.5,13.9-1.5,20.6-3.9h34c5.6,2,11.5,1.8,17.2,2.9c41.6,7.8,76.4,27.5,104.5,59.1
	c23.5,26.2,38.4,56.9,43.9,91.5c8,50.6-2.6,97.2-32.8,139c-2.6,3.6-3,5.5,0.5,8.8c11.1,10.6,21.9,21.5,32.6,32.5
	c2.4,2.5,4,3.3,7.2,0.9c4.1-2.9,8.6-5.1,13.3-6.5c5.5-1.9,9.7-0.5,13.9,3.7c26,26.3,52.3,52.4,78.4,78.6
	c9.1,9.1,18.1,18.1,27.2,27.2c2.1,2.1,4.1,4.3,6.1,6.5v8c-12.2,27.8-32.2,47.8-60,60L444,512z M183.7,328
	c79.1-0.2,144.1-62.9,144.1-143.9c0-80-63.5-143.8-143.5-144C104,40,40.3,103.9,40.2,184C40.1,264.7,104.9,327.5,183.7,328z"/>
</svg>
